<svg role="img" viewBox="0 0 240 240" xmlns="http://www.w3.org/2000/svg" id="Sonatype--Streamline-Simple-Icons" height="240" width="240">
  <desc>
    Sonatype Streamline Icon: https://streamlinehq.com
  </desc>
  <title>Sonatype</title>
  <path d="M24.567999999999998 205.995c0 5.118 -4.275 9.032 -12.103 9.032 -4.938000000000001 0 -9.454 -1.565 -12.465 -4.516l2.8899999999999997 -4.577c2.048 2.109 6.082 4.095 9.876000000000001 4.095 3.794 0 5.72 -1.3850000000000002 5.72 -3.553 0 -2.5280000000000005 -3.07 -3.432 -6.624 -4.215 -4.997 -1.083 -10.959000000000001 -2.408 -10.959000000000001 -8.911999999999999 0 -4.756 4.095 -8.850999999999999 11.440999999999999 -8.850999999999999 4.938000000000001 0 8.672 1.7449999999999999 11.321000000000002 4.095l-2.6500000000000004 4.455c-1.7449999999999999 -1.9869999999999999 -4.998 -3.492 -8.61 -3.492 -3.3129999999999997 0 -5.42 1.204 -5.42 3.251 0 2.2279999999999998 2.8899999999999997 3.01 6.3229999999999995 3.794 5.058 1.084 11.259999999999998 2.5300000000000002 11.259999999999998 9.394zm33.115 -6.263c0 8.370999999999999 -5.659999999999999 15.295000000000002 -14.994 15.295000000000002 -9.214 0 -14.934000000000001 -6.924 -14.934000000000001 -15.295000000000002 0 -8.309999999999999 5.72 -15.235000000000001 14.934000000000001 -15.235000000000001 9.334 0 14.994 6.926 14.994 15.235000000000001zm-6.564 0c0 -5.118 -3.0109999999999997 -9.634 -8.43 -9.634 -5.36 0 -8.37 4.516 -8.37 9.634 0 5.179 3.01 9.695 8.37 9.695 5.4190000000000005 0 8.43 -4.516 8.43 -9.695zm28.117 -15.234000000000002c-4.577 0 -8.309999999999999 2.408 -10.236 4.696v-3.9739999999999998h-6.3229999999999995v29.085H69v-20.293999999999997c1.4449999999999998 -1.986 4.215 -3.913 7.4670000000000005 -3.913 3.553 0 5.84 1.505 5.84 6.021v18.186h6.3229999999999995v-20.474c0 -5.962 -3.13 -9.333 -9.394 -9.333zm40.744 10.537v19.27h-6.3229999999999995v-3.1319999999999997c-2.168 2.4699999999999998 -5.540000000000001 3.855 -9.393 3.855 -4.757 0 -10.117 -3.1919999999999997 -10.117 -9.635 0 -6.685 5.36 -9.454 10.117 -9.454 3.913 0 7.2860000000000005 1.2640000000000002 9.393 3.733v-4.336c0 -3.371 -2.7689999999999997 -5.4190000000000005 -6.804 -5.4190000000000005 -3.251 0 -6.082 1.204 -8.61 3.673l-2.59 -4.396c3.372 -3.1919999999999997 7.587000000000001 -4.697 12.224 -4.697 6.443 0 12.103 2.71 12.103 10.538zm-6.3229999999999995 8.25c-1.444 -1.9869999999999999 -4.154 -3.0109999999999997 -6.924 -3.0109999999999997 -3.553 0 -6.202999999999999 2.048 -6.202999999999999 5.24 0 3.13 2.6500000000000004 5.178000000000001 6.202999999999999 5.178000000000001 2.7700000000000005 0 5.48 -1.024 6.924 -3.0109999999999997v-4.395zm24.87 6.1419999999999995c-1.806 0 -2.7700000000000005 -1.4449999999999998 -2.7700000000000005 -3.432V190.76h5.901999999999999v-5.540000000000001h-5.901999999999999v-7.949000000000001h-6.322v7.949000000000001h-4.817v5.540000000000001h4.817v16.8c0 4.817 2.59 7.468 7.4670000000000005 7.468 2.9499999999999997 0 4.817 -0.7829999999999999 5.960999999999999 -1.867l-1.505 -4.757c-0.482 0.541 -1.626 1.0230000000000001 -2.8299999999999996 1.0230000000000001zm21.175 -2.409 -8.491 -21.798000000000002h-6.744l11.922999999999998 29.445999999999998 -1.4449999999999998 3.3129999999999997c-0.843 1.926 -2.169 2.5280000000000005 -4.154999999999999 2.5280000000000005 -0.722 0 -1.746 -0.18 -2.41 -0.481l-0.962 5.659999999999999c0.903 0.241 2.6500000000000004 0.42200000000000004 3.552 0.42200000000000004 4.5169999999999995 -0.06 8.01 -1.626 9.997 -6.564l14.030000000000001 -34.324h-6.804l-8.49 21.798000000000002zm46.887 -7.2860000000000005c0 9.575 -5.36 15.295000000000002 -12.887 15.295000000000002 -3.674 0 -6.986 -1.626 -9.334 -4.757v15.115h-6.3229999999999995V185.21999999999997h6.3229999999999995v3.9739999999999998c2.168 -2.8899999999999997 5.540000000000001 -4.697 9.334 -4.697 7.527 0 12.887 5.659999999999999 12.887 15.235000000000001zm-6.5649999999999995 0c0 -5.6000000000000005 -3.191 -9.634 -8.19 -9.634 -2.9499999999999997 0 -6.08 1.746 -7.466 3.913v11.501999999999999c1.3850000000000002 2.1079999999999997 4.516 3.914 7.4670000000000005 3.914 4.998 0 8.19 -4.034 8.19 -9.695zM240 201.84h-22.462c0.48300000000000004 4.396 3.794 8.009 9.274000000000001 8.009 2.8299999999999996 0 6.202999999999999 -1.1440000000000001 8.25 -3.1919999999999997l2.8899999999999997 4.154999999999999c-2.8899999999999997 2.7700000000000005 -7.165 4.215 -11.802 4.215 -8.732 0 -15.234000000000002 -6.0809999999999995 -15.234000000000002 -15.295000000000002 0 -8.43 6.141 -15.234000000000002 14.752 -15.234000000000002 8.732 0 14.332 6.684 14.332 15.835999999999999v1.5060000000000002zm-6.1419999999999995 -4.457c-0.12 -3.432 -2.4699999999999998 -7.707000000000001 -8.19 -7.707000000000001 -5.42 0 -7.888 4.154999999999999 -8.19 7.707000000000001h16.38zm-54.337999999999994 -80.399L120 151.348l-59.519999999999996 -34.364V48.256L120 13.892l59.519999999999996 34.364v68.728zm-17.072 -58.871L120 33.607 77.553 58.113v49.013999999999996L120 131.63500000000002l42.44799999999999 -24.506V58.112z" fill="#000000" stroke-width="10"></path>
</svg>